<?xml version="1.0" standalone="no"?><!DOCTYPE svg PUBLIC "-//W3C//DTD SVG 1.1//EN" "http://www.w3.org/Graphics/SVG/1.1/DTD/svg11.dtd"><svg t="1748780636568" class="icon" viewBox="0 0 1204 1024" version="1.1" xmlns="http://www.w3.org/2000/svg" p-id="9501" xmlns:xlink="http://www.w3.org/1999/xlink" width="235.15625" height="200"><path d="M792.937412 787.094588a366.411294 366.411294 0 0 1-215.762824 66.43953c-10.24-0.180706-20.178824-0.903529-30.177882-1.626353-4.035765-0.421647-8.131765-1.084235-12.16753-1.686589a302.260706 302.260706 0 0 1-23.311058-3.553882c-4.698353-0.783059-9.396706-2.108235-13.974589-3.19247a334.426353 334.426353 0 0 1-22.287058-5.421177c-3.493647-1.385412-6.746353-2.409412-10.24-3.855059a279.732706 279.732706 0 0 1-25.057883-9.035294l-5.421176-2.16847a646.384941 646.384941 0 0 1-28.129883-13.673412c-0.301176-0.240941-0.783059-0.421647-1.14447-0.602353a367.435294 367.435294 0 0 1-83.84753-62.945883l-1.264941-1.325176a307.380706 307.380706 0 0 1-26.262588-29.756235 366.411294 366.411294 0 0 1-80.715294-229.376H310.211765L155.105882 252.687059 0 485.315765h96.858353c0 101.857882 31.924706 196.367059 85.835294 274.672941 0.662588 1.204706 1.084235 2.409412 1.807059 3.373176 5.541647 8.131765 11.866353 15.480471 17.769412 22.889412 2.349176 2.770824 4.336941 5.541647 6.746353 8.613647a542.900706 542.900706 0 0 0 30.479058 33.310118 481.882353 481.882353 0 0 0 109.025883 81.799529l3.19247 1.746824c11.444706 6.204235 23.311059 11.926588 35.177412 17.106823l8.854588 3.915294c10.360471 4.336941 20.841412 8.011294 31.442824 11.625412 4.939294 1.746824 9.999059 3.433412 15.058823 5.059765 9.276235 2.650353 18.672941 5.059765 28.190118 7.168 6.384941 1.505882 12.528941 3.132235 19.034353 4.276706 2.650353 0.662588 5.12 1.505882 7.770353 1.807059 9.035294 1.626353 18.070588 2.409412 27.045647 3.493647 3.252706 0.602353 6.505412 1.204706 9.697882 1.505882a480.978824 480.978824 0 0 0 325.51153-85.353412 58.187294 58.187294 0 0 0 14.45647-80.956235 57.825882 57.825882 0 0 0-81.01647-14.275765m273.167059-301.778823a480.918588 480.918588 0 0 0-85.172706-273.950118c-0.843294-1.325176-1.325176-2.710588-1.987765-3.915294a593.438118 593.438118 0 0 0-21.383529-27.467294 34.334118 34.334118 0 0 1-2.409412-3.312941A484.592941 484.592941 0 0 0 774.144 40.779294c-2.048-0.843294-3.794824-1.746824-5.842824-2.529882a582.475294 582.475294 0 0 0-34.334117-12.589177C730.051765 24.335059 725.835294 22.889412 721.739294 21.684706a486.279529 486.279529 0 0 0-30.418823-7.951059c-5.662118-1.204706-11.444706-2.710588-17.167059-3.855059-2.831059-0.481882-5.421176-1.325176-8.372706-1.927529-7.649882-1.204706-15.179294-1.987765-22.889412-2.891294-5.360941-0.602353-10.480941-1.385412-15.841882-1.987765a501.76 501.76 0 0 0-38.550588-1.987765c-2.288941 0-4.577882-0.301176-6.927059-0.301176-0.421647 0-0.783059 0.060235-1.204706 0.180706A480.316235 480.316235 0 0 0 303.585882 88.365176a58.127059 58.127059 0 1 0 66.861177 95.171765 365.206588 365.206588 0 0 1 246.241882-64.63247c3.312941 0.240941 6.445176 0.722824 9.758118 1.204705 8.734118 1.084235 17.468235 2.228706 26.021647 4.096 3.734588 0.602353 7.529412 1.626353 11.083294 2.409412 8.493176 1.927529 16.745412 3.915294 24.937412 6.384941 2.710588 0.783059 5.180235 1.686588 7.710117 2.650353 9.456941 3.072 18.733176 6.264471 27.708236 10.11953 0.963765 0.240941 1.807059 0.963765 2.770823 1.264941a369.724235 369.724235 0 0 1 139.565177 104.929882 367.073882 367.073882 0 0 1 83.727059 233.35153H852.931765l155.346823 232.688941 154.925177-232.688941H1066.164706z" fill="#707070" p-id="9502"></path></svg>